<?xml version="1.0" encoding="UTF-8"?>
<svg width="200px" height="20px" viewBox="0 0 200 20" version="1.1" xmlns="http://www.w3.org/2000/svg" xmlns:xlink="http://www.w3.org/1999/xlink">
    <!-- Generator: Sketch 51.3 (57544) - http://www.bohemiancoding.com/sketch -->
    <title>logo-darkness</title>
    <desc>Created with Sketch.</desc>
    <defs></defs>
    <g id="logo-darkness" stroke="none" stroke-width="1" fill="none" fill-rule="evenodd">
        <path d="M13.390625,10.1455078 C13.390625,12.2666122 12.8017637,13.888178 11.6240234,15.0102539 C10.4462832,16.1323298 8.75001107,16.6933594 6.53515625,16.6933594 L2.94042969,16.6933594 L2.94042969,3.84375 L6.91308594,3.84375 C8.95801804,3.84375 10.5488224,4.39452574 11.6855469,5.49609375 C12.8222713,6.59766176 13.390625,8.14745095 13.390625,10.1455078 Z M11.1757812,10.2158203 C11.1757812,7.13963306 9.73731907,5.6015625 6.86035156,5.6015625 L5.04101562,5.6015625 L5.04101562,14.9267578 L6.53515625,14.9267578 C9.62892172,14.9267578 11.1757812,13.356461 11.1757812,10.2158203 Z M21.4832835,16.6933594 L21.0701976,15.3398438 L20.9998851,15.3398438 C20.5311327,15.9316436 20.0594578,16.3344716 19.584846,16.5483398 C19.1102343,16.7622081 18.5008654,16.8691406 17.756721,16.8691406 C16.8016381,16.8691406 16.0560401,16.6113307 15.5199046,16.0957031 C14.9837691,15.5800755 14.7157054,14.8505907 14.7157054,13.9072266 C14.7157054,12.9052684 15.087772,12.1494166 15.8319163,11.6396484 C16.5760607,11.1298803 17.7098384,10.8515627 19.2332835,10.8046875 L20.9119945,10.7519531 L20.9119945,10.2333984 C20.9119945,9.61230158 20.7669764,9.14795076 20.4769359,8.84033203 C20.1868954,8.53271331 19.7371928,8.37890625 19.1278148,8.37890625 C18.6297654,8.37890625 18.1522311,8.45214771 17.6951976,8.59863281 C17.238164,8.74511792 16.7987153,8.91796775 16.3768382,9.1171875 L15.7088695,7.640625 C16.2362158,7.365233 16.8133585,7.15576244 17.4403148,7.01220703 C18.067271,6.86865163 18.659062,6.796875 19.2157054,6.796875 C20.4520397,6.796875 21.3851358,7.06640355 22.0150218,7.60546875 C22.6449078,8.14453395 22.959846,8.99120517 22.959846,10.1455078 L22.959846,16.6933594 L21.4832835,16.6933594 Z M18.4071116,15.2871094 C19.1571154,15.2871094 19.7591602,15.0776388 20.213264,14.6586914 C20.6673678,14.239744 20.8944163,13.6523475 20.8944163,12.8964844 L20.8944163,12.0527344 L19.6463695,12.1054688 C18.6737083,12.1406252 17.9661959,12.3032212 17.5238109,12.5932617 C17.0814258,12.8833022 16.8602366,13.3271454 16.8602366,13.9248047 C16.8602366,14.3584006 16.9891416,14.6938465 17.2469554,14.9311523 C17.5047692,15.1684582 17.8914841,15.2871094 18.4071116,15.2871094 Z M30.2439108,6.796875 C30.6599285,6.796875 31.0026985,6.82617158 31.2722311,6.88476562 L31.0700827,8.80957031 C30.7771124,8.73925746 30.472428,8.70410156 30.1560202,8.70410156 C29.3298442,8.70410156 28.6604173,8.97363012 28.1477194,9.51269531 C27.6350215,10.0517605 27.3786764,10.7519488 27.3786764,11.6132812 L27.3786764,16.6933594 L25.3132467,16.6933594 L25.3132467,6.97265625 L26.9304342,6.97265625 L27.2028952,8.68652344 L27.3083639,8.68652344 C27.6306312,8.10644241 28.0510371,7.64648607 28.5695944,7.30664062 C29.0881517,6.96679518 29.6462516,6.796875 30.2439108,6.796875 Z M34.5396943,11.5605469 L35.7086396,10.1015625 L38.6441865,6.97265625 L41.0260224,6.97265625 L37.1148896,11.1474609 L41.2721162,16.6933594 L38.8463349,16.6933594 L35.7262177,12.4306641 L34.5924287,13.3623047 L34.5924287,16.6933594 L32.5445771,16.6933594 L32.5445771,3.01757812 L34.5924287,3.01757812 L34.5924287,9.68847656 L34.4869599,11.5605469 L34.5396943,11.5605469 Z M50.8589153,16.6933594 L48.7846966,16.6933594 L48.7846966,10.7167969 C48.7846966,9.96679312 48.6338192,9.40722841 48.3320599,9.03808594 C48.0303005,8.66894347 47.5513014,8.484375 46.8950481,8.484375 C46.0219969,8.484375 45.3833314,8.74218492 44.9790325,9.2578125 C44.5747336,9.77344008 44.3725872,10.6376892 44.3725872,11.8505859 L44.3725872,16.6933594 L42.3071575,16.6933594 L42.3071575,6.97265625 L43.924345,6.97265625 L44.2143841,8.24707031 L44.3198528,8.24707031 C44.612823,7.78417737 45.0288345,7.42675907 45.5678997,7.17480469 C46.1069649,6.9228503 46.7046152,6.796875 47.3608685,6.796875 C49.6929114,6.796875 50.8589153,7.98338657 50.8589153,10.3564453 L50.8589153,16.6933594 Z M57.4486442,16.8691406 C55.9369179,16.8691406 54.7548008,16.4282271 53.9022574,15.5463867 C53.0497141,14.6645464 52.6234488,13.450203 52.6234488,11.9033203 C52.6234488,10.3154217 53.0189527,9.06738735 53.8099723,8.15917969 C54.6009919,7.25097202 55.6878951,6.796875 57.0707145,6.796875 C58.353924,6.796875 59.3675858,7.18651954 60.1117301,7.96582031 C60.8558744,8.74512108 61.227941,9.81737599 61.227941,11.1826172 L61.227941,12.2988281 L54.750402,12.2988281 C54.779699,13.2421922 55.0345793,13.9672826 55.5150504,14.4741211 C55.9955216,14.9809596 56.6722726,15.234375 57.5453238,15.234375 C58.1195455,15.234375 58.6542081,15.1801763 59.1493278,15.0717773 C59.6444474,14.9633784 60.1761804,14.7832044 60.7445426,14.53125 L60.7445426,16.2099609 C60.2406338,16.4501965 59.7308733,16.6201167 59.2152457,16.7197266 C58.6996181,16.8193364 58.1107568,16.8691406 57.4486442,16.8691406 Z M57.0707145,8.36132812 C56.4144612,8.36132812 55.8885875,8.56933386 55.4930778,8.98535156 C55.097568,9.40136927 54.8617305,10.0078085 54.7855582,10.8046875 L59.1976676,10.8046875 C59.1859488,10.0019491 58.9925913,9.39404503 58.6175895,8.98095703 C58.2425876,8.56786903 57.7269678,8.36132812 57.0707145,8.36132812 Z M69.5754824,13.9248047 C69.5754824,14.8740282 69.2297827,15.6020482 68.538373,16.1088867 C67.8469633,16.6157252 66.8567388,16.8691406 65.5676699,16.8691406 C64.2727415,16.8691406 63.2327129,16.6728535 62.4475527,16.2802734 L62.4475527,14.4960938 C63.5901365,15.0234401 64.6536024,15.2871094 65.6379824,15.2871094 C66.9094731,15.2871094 67.5452089,14.9033242 67.5452089,14.1357422 C67.5452089,13.8896472 67.4748971,13.6845711 67.3342714,13.5205078 C67.1936457,13.3564445 66.9622027,13.1865243 66.6399355,13.0107422 C66.3176683,12.8349601 65.8694306,12.6357433 65.2952089,12.4130859 C64.1760627,11.97949 63.4187461,11.5459006 63.0232363,11.1123047 C62.6277265,10.6787088 62.4299746,10.1162144 62.4299746,9.42480469 C62.4299746,8.59276928 62.7654204,7.94677964 63.4363222,7.48681641 C64.107224,7.02685317 65.0198125,6.796875 66.1741152,6.796875 C67.316699,6.796875 68.3977429,7.028318 69.4172792,7.49121094 L68.7493105,9.046875 C67.7004771,8.61327908 66.81865,8.39648438 66.1038027,8.39648438 C65.0139535,8.39648438 64.4690371,8.70702814 64.4690371,9.328125 C64.4690371,9.63281402 64.6111255,9.89062395 64.8953066,10.1015625 C65.1794877,10.3125011 65.7991104,10.6025372 66.7541933,10.9716797 C67.5569317,11.2822281 68.1399337,11.566405 68.5032167,11.8242188 C68.8664998,12.0820325 69.1360284,12.3793928 69.3118105,12.7163086 C69.4875926,13.0532243 69.5754824,13.4560523 69.5754824,13.9248047 Z M77.8087659,13.9248047 C77.8087659,14.8740282 77.4630662,15.6020482 76.7716565,16.1088867 C76.0802468,16.6157252 75.0900223,16.8691406 73.8009534,16.8691406 C72.506025,16.8691406 71.4659964,16.6728535 70.6808362,16.2802734 L70.6808362,14.4960938 C71.82342,15.0234401 72.886886,15.2871094 73.8712659,15.2871094 C75.1427566,15.2871094 75.7784925,14.9033242 75.7784925,14.1357422 C75.7784925,13.8896472 75.7081807,13.6845711 75.567555,13.5205078 C75.4269292,13.3564445 75.1954862,13.1865243 74.873219,13.0107422 C74.5509518,12.8349601 74.1027141,12.6357433 73.5284925,12.4130859 C72.4093462,11.97949 71.6520296,11.5459006 71.2565198,11.1123047 C70.86101,10.6787088 70.6632581,10.1162144 70.6632581,9.42480469 C70.6632581,8.59276928 70.9987039,7.94677964 71.6696057,7.48681641 C72.3405075,7.02685317 73.2530961,6.796875 74.4073987,6.796875 C75.5499825,6.796875 76.6310264,7.028318 77.6505628,7.49121094 L76.982594,9.046875 C75.9337606,8.61327908 75.0519335,8.39648438 74.3370862,8.39648438 C73.247237,8.39648438 72.7023206,8.70702814 72.7023206,9.328125 C72.7023206,9.63281402 72.844409,9.89062395 73.1285901,10.1015625 C73.4127712,10.3125011 74.0323939,10.6025372 74.9874768,10.9716797 C75.7902152,11.2822281 76.3732172,11.566405 76.7365003,11.8242188 C77.0997833,12.0820325 77.3693119,12.3793928 77.545094,12.7163086 C77.7208761,13.0532243 77.8087659,13.4560523 77.8087659,13.9248047 Z" id="Darkness" fill="#FFD400"></path>
    </g>
</svg>