<?xml version="1.0" encoding="UTF-8"?>
<svg width="200px" height="20px" viewBox="0 0 200 20" version="1.1" xmlns="http://www.w3.org/2000/svg" xmlns:xlink="http://www.w3.org/1999/xlink">
    <!-- Generator: Sketch 51.3 (57544) - http://www.bohemiancoding.com/sketch -->
    <title>logo-darkness</title>
    <desc>Created with Sketch.</desc>
    <defs></defs>
    <g id="logo-darkness" stroke="none" stroke-width="1" fill="none" fill-rule="evenodd">
        <path d="M12.7158203,10.315918 C12.7158203,12.3191832 12.1596735,13.850662 11.0473633,14.9104004 C9.93505303,15.9701388 8.33301827,16.5 6.24121094,16.5 L2.84619141,16.5 L2.84619141,4.36425781 L6.59814453,4.36425781 C8.52946929,4.36425781 10.0318957,4.8844349 11.1054688,5.92480469 C12.1790418,6.96517447 12.7158203,8.42886426 12.7158203,10.315918 Z M10.6240234,10.3823242 C10.6240234,7.47703625 9.26547583,6.02441406 6.54833984,6.02441406 L4.83007812,6.02441406 L4.83007812,14.831543 L6.24121094,14.831543 C9.16310055,14.831543 10.6240234,13.3484849 10.6240234,10.3823242 Z M20.5588867,16.5 L20.16875,15.2216797 L20.1023437,15.2216797 C19.6596332,15.7806018 19.2141624,16.1610504 18.765918,16.3630371 C18.3176735,16.5650238 17.7421584,16.6660156 17.0393555,16.6660156 C16.1373327,16.6660156 15.4331568,16.4225285 14.9268066,15.9355469 C14.4204564,15.4485653 14.1672851,14.7596073 14.1672851,13.8686523 C14.1672851,12.9223585 14.5186814,12.2084985 15.2214844,11.7270508 C15.9242874,11.2456031 16.9950774,10.9827476 18.4338867,10.9384766 L20.0193359,10.8886719 L20.0193359,10.3989258 C20.0193359,9.81233431 19.8823744,9.37378075 19.6084473,9.08325195 C19.3345201,8.79272316 18.909801,8.64746094 18.3342773,8.64746094 C17.8638974,8.64746094 17.4128928,8.71663342 16.98125,8.85498047 C16.5496072,8.99332751 16.1345723,9.15657458 15.7361328,9.34472656 L15.1052734,7.95019531 C15.6033228,7.69010287 16.148402,7.49226956 16.7405273,7.35668945 C17.3326527,7.22110935 17.8915664,7.15332031 18.4172851,7.15332031 C19.5849342,7.15332031 20.4661917,7.40787506 21.061084,7.91699219 C21.6559763,8.42610932 21.953418,9.22574325 21.953418,10.315918 L21.953418,16.5 L20.5588867,16.5 Z M17.6536133,15.171875 C18.3619501,15.171875 18.930548,14.9740417 19.3594238,14.5783691 C19.7882997,14.1826966 20.0027344,13.6279333 20.0027344,12.9140625 L20.0027344,12.1171875 L18.8240234,12.1669922 C17.905399,12.2001955 17.2371928,12.3537584 16.8193848,12.6276855 C16.4015767,12.9016127 16.1926758,13.320798 16.1926758,13.8852539 C16.1926758,14.2947612 16.3144193,14.6115711 16.5579101,14.8356934 C16.8014009,15.0598156 17.1666317,15.171875 17.6536133,15.171875 Z M29.0328125,7.15332031 C29.4257181,7.15332031 29.7494453,7.18098931 30.0040039,7.23632812 L29.8130859,9.05419922 C29.5363918,8.98779264 29.2486343,8.95458984 28.9498047,8.95458984 C28.1695273,8.95458984 27.5372908,9.20914459 27.0530761,9.71826172 C26.5688615,10.2273788 26.3267578,10.8886678 26.3267578,11.7021484 L26.3267578,16.5 L24.3760742,16.5 L24.3760742,7.31933594 L25.9034179,7.31933594 L26.1607422,8.93798828 L26.2603515,8.93798828 C26.564715,8.39013398 26.9617651,7.95573077 27.4515136,7.63476562 C27.9412622,7.31380048 28.4683565,7.15332031 29.0328125,7.15332031 Z M33.2899414,11.6523438 L34.3939453,10.2744141 L37.1664062,7.31933594 L39.4159179,7.31933594 L35.7220703,11.262207 L39.6483398,16.5 L37.3573242,16.5 L34.4105468,12.4741211 L33.3397461,13.3540039 L33.3397461,16.5 L31.405664,16.5 L31.405664,3.58398438 L33.3397461,3.58398438 L33.3397461,9.88427734 L33.2401367,11.6523438 L33.2899414,11.6523438 Z M48.902539,16.5 L46.9435546,16.5 L46.9435546,10.8554688 C46.9435546,10.1471319 46.8010593,9.61865409 46.5160644,9.27001953 C46.2310695,8.92138498 45.7786814,8.74707031 45.1588867,8.74707031 C44.3343383,8.74707031 43.7311542,8.99055746 43.3493164,9.47753906 C42.9674785,9.96452066 42.7765625,10.780756 42.7765625,11.9262695 L42.7765625,16.5 L40.8258789,16.5 L40.8258789,7.31933594 L42.3532226,7.31933594 L42.6271484,8.52294922 L42.7267578,8.52294922 C43.0034519,8.08577255 43.3963516,7.74821083 43.9054687,7.51025391 C44.4145858,7.27229699 44.9790333,7.15332031 45.5988281,7.15332031 C47.801313,7.15332031 48.902539,8.27391458 48.902539,10.5151367 L48.902539,16.5 Z M55.3261718,16.6660156 C53.8984303,16.6660156 52.7819864,16.2495973 51.9768066,15.416748 C51.1716268,14.5838988 50.7690429,13.437019 50.7690429,11.9760742 C50.7690429,10.4763922 51.1425743,9.29769309 51.8896484,8.43994141 C52.6367224,7.58218972 53.6632421,7.15332031 54.9692382,7.15332031 C56.1811583,7.15332031 57.1385055,7.52131793 57.8413085,8.25732422 C58.5441115,8.9933305 58.8955078,10.0060157 58.8955078,11.2954102 L58.8955078,12.3496094 L52.777832,12.3496094 C52.8055014,13.2405644 53.0462216,13.925372 53.4999999,14.4040527 C53.9537783,14.8827335 54.592932,15.1220703 55.4174804,15.1220703 C55.9598008,15.1220703 56.46476,15.0708827 56.932373,14.9685059 C57.399986,14.866129 57.9021782,14.6959647 58.4389648,14.4580078 L58.4389648,16.043457 C57.9630509,16.2703462 57.4816104,16.4308264 56.9946288,16.5249023 C56.5076472,16.6189783 55.9515005,16.6660156 55.3261718,16.6660156 Z M54.9692382,8.63085938 C54.3494435,8.63085938 53.852785,8.82730923 53.479248,9.22021484 C53.105711,9.61312045 52.8829756,10.1858686 52.8110351,10.9384766 L56.9780273,10.9384766 C56.9669595,10.1803348 56.7843442,9.60620312 56.4301757,9.21606445 C56.0760073,8.82592578 55.589033,8.63085938 54.9692382,8.63085938 Z M66.9792968,13.8852539 C66.9792968,14.7817428 66.6528027,15.4693173 65.9998046,15.947998 C65.3468066,16.4266788 64.4115946,16.6660156 63.1941406,16.6660156 C61.9711527,16.6660156 60.9889034,16.4806334 60.2473632,16.1098633 L60.2473632,14.4248047 C61.3264702,14.9228541 62.3308547,15.171875 63.2605468,15.171875 C64.4613992,15.171875 65.0618163,14.8094112 65.0618163,14.0844727 C65.0618163,13.8520496 64.9954107,13.6583667 64.8625976,13.503418 C64.7297844,13.3484693 64.5111994,13.1879891 64.2068359,13.0219727 C63.9024724,12.8559562 63.4791368,12.667807 62.9368163,12.4575195 C61.8798449,12.0480123 61.1646014,11.6385112 60.7910644,11.2290039 C60.4175274,10.8194967 60.2307616,10.288252 60.2307616,9.63525391 C60.2307616,8.84944269 60.5475716,8.23934136 61.1812011,7.80493164 C61.8148306,7.37052192 62.6767197,7.15332031 63.7668945,7.15332031 C64.8460014,7.15332031 65.8669873,7.37190537 66.8298827,7.80908203 L66.1990234,9.27832031 C65.2084585,8.86881306 64.3756218,8.6640625 63.7004882,8.6640625 C62.6711862,8.6640625 62.1565429,8.95735384 62.1565429,9.54394531 C62.1565429,9.83170717 62.2907375,10.0751943 62.5591308,10.2744141 C62.8275241,10.4736338 63.4127233,10.7475569 64.314746,11.0961914 C65.0728878,11.3894871 65.6235008,11.6578764 65.9666015,11.9013672 C66.3097022,12.144858 66.5642569,12.4256983 66.7302734,12.7438965 C66.8962898,13.0620947 66.9792968,13.4425434 66.9792968,13.8852539 Z M74.9551757,13.8852539 C74.9551757,14.7817428 74.6286816,15.4693173 73.9756835,15.947998 C73.3226855,16.4266788 72.3874735,16.6660156 71.1700194,16.6660156 C69.9470316,16.6660156 68.9647823,16.4806334 68.2232421,16.1098633 L68.2232421,14.4248047 C69.3023491,14.9228541 70.3067335,15.171875 71.2364257,15.171875 C72.4372781,15.171875 73.0376952,14.8094112 73.0376952,14.0844727 C73.0376952,13.8520496 72.9712896,13.6583667 72.8384765,13.503418 C72.7056633,13.3484693 72.4870783,13.1879891 72.1827148,13.0219727 C71.8783513,12.8559562 71.4550156,12.667807 70.9126952,12.4575195 C69.8557238,12.0480123 69.1404803,11.6385112 68.7669433,11.2290039 C68.3934063,10.8194967 68.2066405,10.288252 68.2066405,9.63525391 C68.2066405,8.84944269 68.5234505,8.23934136 69.15708,7.80493164 C69.7907095,7.37052192 70.6525986,7.15332031 71.7427734,7.15332031 C72.8218803,7.15332031 73.8428662,7.37190537 74.8057616,7.80908203 L74.1749023,9.27832031 C73.1843374,8.86881306 72.3515007,8.6640625 71.6763671,8.6640625 C70.6470651,8.6640625 70.1324218,8.95735384 70.1324218,9.54394531 C70.1324218,9.83170717 70.2666164,10.0751943 70.5350097,10.2744141 C70.803403,10.4736338 71.3886022,10.7475569 72.2906249,11.0961914 C73.0487667,11.3894871 73.5993797,11.6578764 73.9424804,11.9013672 C74.2855811,12.144858 74.5401358,12.4256983 74.7061523,12.7438965 C74.8721687,13.0620947 74.9551757,13.4425434 74.9551757,13.8852539 Z M89.7222655,8.03320312 C89.7222655,9.30046207 89.3072306,10.2716438 88.4771484,10.9467773 C87.6470661,11.6219109 86.4656,11.9594727 84.9327148,11.9594727 L83.670996,11.9594727 L83.670996,16.5 L81.6871093,16.5 L81.6871093,4.36425781 L85.1817382,4.36425781 C86.6980218,4.36425781 87.833834,4.67415055 88.5892089,5.29394531 C89.3445838,5.91374008 89.7222655,6.82681688 89.7222655,8.03320312 Z M83.670996,10.2910156 L84.7251952,10.2910156 C85.7434295,10.2910156 86.4904923,10.1139341 86.9664062,9.75976562 C87.44232,9.40559719 87.6802734,8.8522173 87.6802734,8.09960938 C87.6802734,7.40234026 87.4672221,6.88216317 87.0411132,6.5390625 C86.6150043,6.19596183 85.9509484,6.02441406 85.0489257,6.02441406 L83.670996,6.02441406 L83.670996,10.2910156 Z M96.5953124,7.15332031 C96.988218,7.15332031 97.3119453,7.18098931 97.5665038,7.23632812 L97.3755859,9.05419922 C97.0988918,8.98779264 96.8111342,8.95458984 96.5123046,8.95458984 C95.7320273,8.95458984 95.0997907,9.20914459 94.6155761,9.71826172 C94.1313614,10.2273788 93.8892577,10.8886678 93.8892577,11.7021484 L93.8892577,16.5 L91.9385741,16.5 L91.9385741,7.31933594 L93.4659179,7.31933594 L93.7232421,8.93798828 L93.8228515,8.93798828 C94.127215,8.39013398 94.524265,7.95573077 95.0140136,7.63476562 C95.5037621,7.31380048 96.0308565,7.15332031 96.5953124,7.15332031 Z M107.41123,11.8930664 C107.41123,13.3927484 107.026631,14.5631468 106.257422,15.4042969 C105.488212,16.2454469 104.417422,16.6660156 103.045019,16.6660156 C102.187268,16.6660156 101.429137,16.4723327 100.770605,16.0849609 C100.112073,15.6975892 99.6057309,15.1414424 99.2515624,14.4165039 C98.897394,13.6915654 98.7203124,12.850428 98.7203124,11.8930664 C98.7203124,10.4044522 99.1021445,9.24235444 99.8658202,8.40673828 C100.629496,7.57112212 101.70582,7.15332031 103.094824,7.15332031 C104.422956,7.15332031 105.474378,7.58080627 106.249121,8.43579102 C107.023864,9.29077576 107.41123,10.4431894 107.41123,11.8930664 Z M100.729101,11.8930664 C100.729101,14.0125431 101.512134,15.0722656 103.078223,15.0722656 C104.627709,15.0722656 105.402441,14.0125431 105.402441,11.8930664 C105.402441,9.79572519 104.622176,8.74707031 103.061621,8.74707031 C102.242606,8.74707031 101.649107,9.01822646 101.281103,9.56054688 C100.9131,10.1028673 100.729101,10.880366 100.729101,11.8930664 Z" id="Darkness-Pro" fill="#EEEEEE"></path>
    </g>
</svg>