<?xml version="1.0" encoding="UTF-8"?>
<svg width="200px" height="20px" viewBox="0 0 200 20" version="1.1" xmlns="http://www.w3.org/2000/svg" xmlns:xlink="http://www.w3.org/1999/xlink">
    <!-- Generator: Sketch 51.3 (57544) - http://www.bohemiancoding.com/sketch -->
    <title>logo-darkness</title>
    <desc>Created with Sketch.</desc>
    <defs></defs>
    <g id="logo-darkness" stroke="red" stroke-width="1" fill="yellow" fill-rule="evenodd">
        <rect fill="#303030" x="0" y="0" width="200" height="20"></rect>
        <path d="M12.840332,10.5092773 C12.840332,12.5070087 12.2717342,14.0371041 11.1345215,15.0996094 C9.99730877,16.1621147 8.35515396,16.6933594 6.20800781,16.6933594 L2.77148438,16.6933594 L2.77148438,4.55761719 L6.58154297,4.55761719 C8.56267267,4.55761719 10.1010687,5.08056118 11.1967773,6.12646484 C12.2924859,7.17236851 12.840332,8.6332914 12.840332,10.5092773 Z M10.1674805,10.5756836 C10.1674805,7.96922525 9.01645031,6.66601562 6.71435547,6.66601562 L5.34472656,6.66601562 L5.34472656,14.5683594 L6.44873047,14.5683594 C8.92790953,14.5683594 10.1674805,13.2374808 10.1674805,10.5756836 Z M20.5498047,16.6933594 L20.0600586,15.4316406 L19.9936523,15.4316406 C19.5675434,15.9684272 19.1289899,16.3405751 18.6779785,16.5480957 C18.2269671,16.7556163 17.639001,16.859375 16.9140625,16.859375 C16.0231075,16.859375 15.3216985,16.6048203 14.8098145,16.0957031 C14.2979304,15.586586 14.0419922,14.8616583 14.0419922,13.9208984 C14.0419922,12.9358675 14.3864712,12.2095564 15.0754395,11.7419434 C15.7644077,11.2743303 16.8033785,11.0156252 18.1923828,10.9658203 L19.8027344,10.9160156 L19.8027344,10.5092773 C19.8027344,9.56851743 19.3212939,9.09814453 18.3583984,9.09814453 C17.6168583,9.09814453 16.745285,9.32226338 15.7436523,9.77050781 L14.9052734,8.06054688 C15.9733126,7.50162481 17.1575456,7.22216797 18.4580078,7.22216797 C19.7031312,7.22216797 20.6577115,7.49332411 21.3217773,8.03564453 C21.9858432,8.57796495 22.3178711,9.40250098 22.3178711,10.5092773 L22.3178711,16.6933594 L20.5498047,16.6933594 Z M19.8027344,12.3935547 L18.8232422,12.4267578 C18.0872359,12.4488933 17.5393898,12.5817045 17.1796875,12.8251953 C16.8199852,13.0686861 16.6401367,13.4394506 16.6401367,13.9375 C16.6401367,14.6513708 17.0496378,15.0083008 17.8686523,15.0083008 C18.4552438,15.0083008 18.9242333,14.8395199 19.2756348,14.5019531 C19.6270363,14.1643863 19.8027344,13.7161486 19.8027344,13.1572266 L19.8027344,12.3935547 Z M29.6040039,7.23876953 C29.9471046,7.23876953 30.2320952,7.26367163 30.4589844,7.31347656 L30.2680664,9.6875 C30.0633128,9.63216118 29.8142918,9.60449219 29.5209961,9.60449219 C28.7130493,9.60449219 28.0835797,9.81200964 27.6325684,10.2270508 C27.181557,10.6420919 26.9560547,11.2231408 26.9560547,11.9702148 L26.9560547,16.6933594 L24.4243164,16.6933594 L24.4243164,7.41308594 L26.3417969,7.41308594 L26.715332,8.97363281 L26.8398438,8.97363281 C27.1276056,8.45344792 27.516355,8.03426266 28.0061035,7.71606445 C28.4958521,7.39786625 29.0284802,7.23876953 29.6040039,7.23876953 Z M34.0761719,11.6464844 L35.1801758,10.2353516 L37.7783203,7.41308594 L40.6337891,7.41308594 L36.9482422,11.4389648 L40.8579102,16.6933594 L37.9360352,16.6933594 L35.2631836,12.9331055 L34.1757812,13.8046875 L34.1757812,16.6933594 L31.644043,16.6933594 L31.644043,3.77734375 L34.1757812,3.77734375 L34.1757812,9.53808594 L34.0429688,11.6464844 L34.0761719,11.6464844 Z M50.2524414,16.6933594 L47.7207031,16.6933594 L47.7207031,11.2729492 C47.7207031,10.6033495 47.6017265,10.1011573 47.3637695,9.76635742 C47.1258126,9.43155757 46.7467474,9.26416016 46.2265625,9.26416016 C45.5182256,9.26416016 45.0063492,9.50073006 44.690918,9.97387695 C44.3754867,10.4470239 44.2177734,11.2314398 44.2177734,12.3271484 L44.2177734,16.6933594 L41.6860352,16.6933594 L41.6860352,7.41308594 L43.6201172,7.41308594 L43.9604492,8.60009766 L44.1015625,8.60009766 C44.3837905,8.15185323 44.7725398,7.81290805 45.2678223,7.58325195 C45.7631047,7.35359586 46.3261687,7.23876953 46.9570312,7.23876953 C48.0361382,7.23876953 48.8551404,7.53067742 49.4140625,8.11450195 C49.9729846,8.69832649 50.2524414,9.54084736 50.2524414,10.6420898 L50.2524414,16.6933594 Z M56.2021484,9.04003906 C55.6653619,9.04003906 55.2447932,9.21020338 54.9404297,9.55053711 C54.6360662,9.89087084 54.4617515,10.3736948 54.4174805,10.9990234 L57.9702148,10.9990234 C57.9591471,10.3736948 57.7959,9.89087084 57.4804688,9.55053711 C57.1650375,9.21020338 56.738935,9.04003906 56.2021484,9.04003906 Z M56.559082,16.859375 C55.0649339,16.859375 53.8973024,16.447107 53.0561523,15.6225586 C52.2150023,14.7980102 51.7944336,13.6303786 51.7944336,12.1196289 C51.7944336,10.5646081 52.183183,9.36239031 52.9606934,8.51293945 C53.7382038,7.66348859 54.8131442,7.23876953 56.1855469,7.23876953 C57.4970769,7.23876953 58.5180628,7.61230095 59.2485352,8.359375 C59.9790076,9.10644905 60.3442383,10.1385025 60.3442383,11.4555664 L60.3442383,12.684082 L54.359375,12.684082 C54.3870444,13.4034867 54.6000957,13.9651673 54.9985352,14.3691406 C55.3969746,14.773114 55.9558883,14.9750977 56.675293,14.9750977 C57.234215,14.9750977 57.7626928,14.9169928 58.2607422,14.8007812 C58.7587916,14.6845697 59.2789686,14.4991875 59.8212891,14.2446289 L59.8212891,16.2036133 C59.3785785,16.4249686 58.9054387,16.5895991 58.4018555,16.6975098 C57.8982722,16.8054205 57.2840206,16.859375 56.559082,16.859375 Z M68.3774414,13.9375 C68.3774414,14.8893277 68.0467969,15.6142553 67.385498,16.1123047 C66.7241992,16.6103541 65.7350326,16.859375 64.4179688,16.859375 C63.7428352,16.859375 63.1673201,16.8137212 62.6914062,16.7224121 C62.2154924,16.6311031 61.7700216,16.4969084 61.3549805,16.3198242 L61.3549805,14.2280273 C61.8253604,14.4493826 62.3552217,14.6347649 62.9445801,14.7841797 C63.5339385,14.9335945 64.0527321,15.0083008 64.5009766,15.0083008 C65.4196009,15.0083008 65.8789062,14.7426784 65.8789062,14.2114258 C65.8789062,14.012206 65.8180345,13.8503424 65.6962891,13.7258301 C65.5745437,13.6013177 65.3642593,13.4602059 65.0654297,13.3024902 C64.7666001,13.1447746 64.3681666,12.9607758 63.8701172,12.7504883 C63.1562464,12.4516587 62.631919,12.1749687 62.2971191,11.9204102 C61.9623193,11.6658516 61.7188321,11.3739437 61.5666504,11.0446777 C61.4144686,10.7154118 61.3383789,10.310061 61.3383789,9.82861328 C61.3383789,9.00406489 61.6579558,8.36629457 62.2971191,7.9152832 C62.9362825,7.46427183 63.8424421,7.23876953 65.015625,7.23876953 C66.1334691,7.23876953 67.2208606,7.48225668 68.277832,7.96923828 L67.5141602,9.79541016 C67.0493141,9.59619041 66.6149109,9.43294334 66.2109375,9.30566406 C65.8069641,9.17838478 65.3946961,9.11474609 64.9741211,9.11474609 C64.227047,9.11474609 63.8535156,9.31672975 63.8535156,9.72070312 C63.8535156,9.94759228 63.9738757,10.1440421 64.2145996,10.3100586 C64.4553235,10.476075 64.9824178,10.7223291 65.7958984,11.0488281 C66.520837,11.3421239 67.0520816,11.6160469 67.3896484,11.8706055 C67.7272152,12.125164 67.9762362,12.4184554 68.1367188,12.7504883 C68.2972013,13.0825212 68.3774414,13.4781878 68.3774414,13.9375 Z M76.3276367,13.9375 C76.3276367,14.8893277 75.9969922,15.6142553 75.3356934,16.1123047 C74.6743945,16.6103541 73.6852279,16.859375 72.3681641,16.859375 C71.6930305,16.859375 71.1175154,16.8137212 70.6416016,16.7224121 C70.1656877,16.6311031 69.7202169,16.4969084 69.3051758,16.3198242 L69.3051758,14.2280273 C69.7755557,14.4493826 70.305417,14.6347649 70.8947754,14.7841797 C71.4841338,14.9335945 72.0029274,15.0083008 72.4511719,15.0083008 C73.3697963,15.0083008 73.8291016,14.7426784 73.8291016,14.2114258 C73.8291016,14.012206 73.7682298,13.8503424 73.6464844,13.7258301 C73.524739,13.6013177 73.3144546,13.4602059 73.015625,13.3024902 C72.7167954,13.1447746 72.3183619,12.9607758 71.8203125,12.7504883 C71.1064417,12.4516587 70.5821143,12.1749687 70.2473145,11.9204102 C69.9125146,11.6658516 69.6690275,11.3739437 69.5168457,11.0446777 C69.364664,10.7154118 69.2885742,10.310061 69.2885742,9.82861328 C69.2885742,9.00406489 69.6081511,8.36629457 70.2473145,7.9152832 C70.8864778,7.46427183 71.7926374,7.23876953 72.9658203,7.23876953 C74.0836644,7.23876953 75.1710559,7.48225668 76.2280273,7.96923828 L75.4643555,9.79541016 C74.9995094,9.59619041 74.5651062,9.43294334 74.1611328,9.30566406 C73.7571594,9.17838478 73.3448914,9.11474609 72.9243164,9.11474609 C72.1772424,9.11474609 71.8037109,9.31672975 71.8037109,9.72070312 C71.8037109,9.94759228 71.9240711,10.1440421 72.1647949,10.3100586 C72.4055188,10.476075 72.9326131,10.7223291 73.7460938,11.0488281 C74.4710323,11.3421239 75.002277,11.6160469 75.3398438,11.8706055 C75.6774105,12.125164 75.9264315,12.4184554 76.0869141,12.7504883 C76.2473966,13.0825212 76.3276367,13.4781878 76.3276367,13.9375 Z" id="Darkness" fill="#FFFFFF"></path>
    </g>
</svg>