<svg xmlns="http://www.w3.org/2000/svg" style="display: none;"><symbol id="site-google" viewBox="0 0 512 512"><title>site-google</title><path style="fill:#FBBB00;" d="M113.47,309.408L95.648,375.94l-65.139,1.378C11.042,341.211,0,299.9,0,256 c0-42.451,10.324-82.483,28.624-117.732h0.014l57.992,10.632l25.404,57.644c-5.317,15.501-8.215,32.141-8.215,49.456 C103.821,274.792,107.225,292.797,113.47,309.408z"/><path style="fill:#518EF8;" d="M507.527,208.176C510.467,223.662,512,239.655,512,256c0,18.328-1.927,36.206-5.598,53.451 c-12.462,58.683-45.025,109.925-90.134,146.187l-0.014-0.014l-73.044-3.727l-10.338-64.535 c29.932-17.554,53.324-45.025,65.646-77.911h-136.89V208.176h138.887L507.527,208.176L507.527,208.176z"/><path style="fill:#28B446;" d="M416.253,455.624l0.014,0.014C372.396,490.901,316.666,512,256,512 c-97.491,0-182.252-54.491-225.491-134.681l82.961-67.91c21.619,57.698,77.278,98.771,142.53,98.771 c28.047,0,54.323-7.582,76.87-20.818L416.253,455.624z"/><path style="fill:#F14336;" d="M419.404,58.936l-82.933,67.896c-23.335-14.586-50.919-23.012-80.471-23.012 c-66.729,0-123.429,42.957-143.965,102.724l-83.397-68.276h-0.014C71.23,56.123,157.06,0,256,0 C318.115,0,375.068,22.126,419.404,58.936z"/></symbol><symbol id="site-gmail" viewBox="0 0 512 512"><title>site-gmail</title><g> <polygon style="fill:#F2F2F2;" points="484.973,122.808 452.288,451.017 59.712,451.017 33.379,129.16 256,253.802 "/> <polygon style="fill:#F2F2F2;" points="473.886,60.983 256,265.659 38.114,60.983 256,60.983 "/> </g><path style="fill:#F14336;" d="M59.712,155.493v295.524H24.139C10.812,451.017,0,440.206,0,426.878V111.967l39,1.063L59.712,155.493 z"/><path style="fill:#D32E2A;" d="M512,111.967v314.912c0,13.327-10.812,24.139-24.152,24.139h-35.56V155.493l19.692-46.525 L512,111.967z"/><path style="fill:#F14336;" d="M512,85.122v26.845l-59.712,43.526L256,298.561L59.712,155.493L0,111.967V85.122 c0-13.327,10.812-24.139,24.139-24.139h13.975L256,219.792L473.886,60.983h13.962C501.188,60.983,512,71.794,512,85.122z"/><polygon style="fill:#D32E2A;" points="59.712,155.493 0,146.235 0,111.967 "/></symbol><symbol id="site-googledrive" viewBox="0 0 512 512"><title>site-googledrive</title><polygon style="fill:#28B446;" points="165.891,334.343 161.611,419.266 82.713,479.21 0,333.399 172.602,32.79 253.414,88.26 256.078,178.175 255.315,178.614 "/><polygon style="fill:#219B38;" points="172.602,32.79 221.718,237.124 256.078,178.175 253.414,59.814 "/><polygon style="fill:#FFD837;" points="339.385,32.79 512,333.399 418.917,380.477 345.204,333.851 345.204,333.399 256.078,178.175 172.602,32.79 "/><polygon style="fill:#518EF8;" points="512,333.399 429.339,478.266 82.713,479.21 165.891,334.343 345.204,333.851 "/><polygon style="fill:#3A5BBC;" points="82.713,479.21 227.749,334.173 165.891,334.343 "/><polygon style="fill:#FBBB00;" points="512,333.399 322.76,294.31 345.204,333.851 "/></symbol><symbol id="site-googlephotos" viewBox="0 0 512 512"><title>site-googlephotos</title><polygon style="fill:#D32E2A;" points="385.829,128 385.829,256 347.429,291.072 307.2,256 272.457,241.371 306.59,165.51 "/><polygon style="fill:#3A5BBC;" points="384,385.219 256,385.219 255.39,383.391 226.133,356.291 255.39,308.041 270.629,271.848 355.962,302.043 "/><polygon style="fill:#FBBB00;" points="256.61,128.61 288.305,164.901 256.61,203.959 241.371,240.152 161.524,200.253 128,126.781 256,126.781 "/><polygon style="fill:#28B446;" points="239.543,270.629 204.495,346.843 126.171,384 126.171,256 163.962,232.558 204.8,256 "/><polygon style="fill:#518EF8;" points="512,256 384,385.219 270.629,271.848 307.2,256 385.829,256 "/><polygon style="fill:#91C646;" points="255.39,383.391 255.39,512 126.171,384 239.543,270.629 255.39,307.2 255.39,308.041 "/><polygon style="fill:#FFD837;" points="241.371,240.152 204.8,256 126.171,256 0,256 128,126.781 "/><polygon style="fill:#F14336;" points="385.829,128 272.457,241.371 256.61,204.8 256.61,203.959 256.61,128.61 256.61,0 "/></symbol><symbol id="site-googlecalendar" viewBox="0 0 511.999 511.999"><title>site-googlecalendar</title><path style="fill:#E6E6E6;" d="M455.617,10.846H56.367c-12.437,0-22.517,10.094-22.517,22.531v74.912h444.296V33.377 C478.147,20.939,468.053,10.846,455.617,10.846z M148.16,55.922c-5.953,0-10.784-4.831-10.784-10.784s4.831-10.784,10.784-10.784 c5.953,0,10.784,4.831,10.784,10.784S154.112,55.922,148.16,55.922z M366.656,55.922c-5.953,0-10.784-4.831-10.784-10.784 s4.831-10.784,10.784-10.784s10.784,4.831,10.784,10.784S372.608,55.922,366.656,55.922z"/><path style="fill:#3A5BBC;" d="M511.505,113.523l-34.077,177.704l13.918,184.793c1.021,13.559-9.706,25.134-23.322,25.134H43.96 c-13.602,0-24.343-11.575-23.322-25.134l13.933-184.793L0.494,113.523C-2.712,96.815,10.099,81.3,27.123,81.3h457.74 C501.901,81.3,514.711,96.815,511.505,113.523z"/><path style="fill:#518EF8;" d="M468.024,501.153H43.96c-13.602,0-24.343-11.575-23.322-25.134l13.933-184.793h244.435h198.423 l13.918,184.793C492.368,489.578,481.641,501.153,468.024,501.153z"/><g> <path style="fill:#FFFFFF;" d="M247.371,244.856c0-34.687-29.026-62.906-64.703-62.906s-64.703,28.219-64.703,62.906h21.568 c0-22.794,19.351-41.338,43.136-41.338s43.136,18.544,43.136,41.338s-19.351,41.338-43.136,41.338h-20.13v21.568h20.13 c23.785,0,43.136,18.544,43.136,41.338c0,22.794-19.351,41.338-43.136,41.338s-43.136-18.544-43.136-41.338h-21.568 c0,34.687,29.026,62.906,64.703,62.906s64.703-28.219,64.703-62.906c0-21.663-11.322-40.802-28.513-52.122 C236.05,285.659,247.371,266.519,247.371,244.856z"/> <polygon style="fill:#FFFFFF;" points="289.289,218.704 300.353,237.218 342.989,211.741 342.989,401.222 364.556,401.222 364.556,173.728 "/> </g></symbol><symbol id="site-dropbox" viewBox="0 0 447.232 447.232"><title>site-dropbox</title><path style="fill:#1587EA;" d="M207.527,251.676L92.903,177.758c-3.72-2.399-8.559-2.145-12.007,0.63L3.833,240.403 c-5.458,4.392-5.015,12.839,0.873,16.636l114.624,73.918c3.72,2.399,8.559,2.145,12.007-0.63l77.063-62.014 C213.858,263.92,213.415,255.473,207.527,251.676z"/><path style="fill:#1587EA;" d="M238.833,268.312l77.063,62.014c3.449,2.775,8.287,3.029,12.007,0.63l114.624-73.918 c5.888-3.797,6.331-12.244,0.873-16.636l-77.063-62.014c-3.449-2.775-8.287-3.029-12.007-0.63l-114.624,73.918 C233.819,255.473,233.375,263.92,238.833,268.312z"/><path style="fill:#1587EA;" d="M208.4,74.196l-77.063-62.014c-3.449-2.775-8.287-3.029-12.007-0.63L4.706,85.47 c-5.888,3.797-6.331,12.244-0.873,16.636l77.063,62.014c3.449,2.775,8.287,3.029,12.007,0.63l114.624-73.918 C213.415,87.035,213.858,78.588,208.4,74.196z"/><path style="fill:#1587EA;" d="M442.527,85.47L327.903,11.552c-3.72-2.399-8.559-2.145-12.007,0.63l-77.063,62.014 c-5.458,4.392-5.015,12.839,0.873,16.636l114.625,73.918c3.72,2.399,8.559,2.145,12.007-0.63l77.063-62.014 C448.858,97.713,448.415,89.266,442.527,85.47z"/><path style="fill:#1587EA;" d="M218,279.2l-86.3,68.841c-3.128,2.495-7.499,2.715-10.861,0.547L99.568,334.87 c-6.201-3.999-14.368,0.453-14.368,7.831v7.416c0,3.258,1.702,6.28,4.488,7.969l128.481,77.884c2.969,1.8,6.692,1.8,9.661,0 l128.481-77.884c2.786-1.689,4.488-4.71,4.488-7.969v-6.619c0-7.378-8.168-11.83-14.368-7.831l-20.024,12.913 c-3.368,2.172-7.748,1.947-10.876-0.559l-85.893-68.809C226.238,276.489,221.405,276.484,218,279.2z"/></symbol><symbol id="site-stackoverflow" viewBox="0 0 511.987 511.987"><title>site-stackoverflow</title><g> <rect x="113.804" y="404.819" style="fill:#FFC107;" width="202.144" height="43.168"/> <rect x="392.385" y="2.202" transform="matrix(-0.9853 0.171 -0.171 -0.9853 839.5015 134.2464)" style="fill:#FFC107;" width="43.169" height="202.15"/> <polygon style="fill:#FFC107;" points="119.564,326.547 320.844,345.107 316.876,388.083 115.596,369.555 "/> <rect x="209.301" y="182.301" transform="matrix(-0.2596 0.9657 -0.9657 -0.2596 564.4791 133.9671)" style="fill:#FFC107;" width="43.167" height="202.141"/> <polygon style="fill:#FFC107;" points="185.484,136.691 359.596,239.379 337.676,276.563 163.532,173.875 "/> <polygon style="fill:#FFC107;" points="288.396,42.131 402.284,209.139 366.636,233.459 252.716,66.451 "/> </g><polygon style="fill:#B0BEC5;" points="379.468,511.987 59.468,511.987 59.468,319.987 91.468,319.987 91.468,479.987 347.468,479.987 347.468,319.987 379.468,319.987 "/></symbol><symbol id="site-github" viewBox="0 0 35.318 35.318"><title>site-github</title><path d="M23.71,34.689c-0.172,0.062-0.345,0.137-0.522,0.168c-0.678,0.121-1.112-0.229-1.116-0.922 c-0.009-1.287-0.009-2.572,0.012-3.859c0.022-1.48-0.012-2.941-1.139-4.162c0.67-0.12,1.266-0.204,1.849-0.338 c3.862-0.887,5.868-3.323,6.124-7.366c0.131-2.058-0.236-3.946-1.604-5.567c-0.099-0.114-0.104-0.373-0.057-0.539 c0.364-1.34,0.258-2.649-0.166-3.959c-0.105-0.327-0.279-0.428-0.602-0.407c-1.134,0.063-2.173,0.461-3.089,1.073 c-0.883,0.593-1.705,0.722-2.754,0.482c-2.31-0.521-4.635-0.369-6.94,0.165c-0.261,0.062-0.612-0.021-0.851-0.161 c-1.082-0.634-2.164-1.25-3.412-1.496c-0.965-0.188-1.049-0.14-1.305,0.793C7.816,9.77,7.784,10.947,8.113,12.13 c0.047,0.172-0.002,0.448-0.117,0.575c-2.557,2.853-1.631,8.244,0.092,10.309c1.34,1.604,3.12,2.326,5.096,2.701 c0.345,0.064,0.688,0.113,1.033,0.173c-0.296,0.77-0.562,1.497-0.863,2.212c-0.059,0.138-0.246,0.254-0.399,0.312 c-1.938,0.752-3.604,0.199-4.713-1.56c-0.593-0.938-1.354-1.639-2.488-1.842c-0.036-0.007-0.073-0.026-0.106-0.021 c-0.305,0.08-0.607,0.164-0.911,0.246c0.171,0.238,0.292,0.558,0.521,0.701c0.961,0.608,1.586,1.475,1.999,2.498 c0.649,1.604,1.909,2.319,3.546,2.459c0.799,0.065,1.606,0.01,2.481,0.01c0,0.996,0.036,2.133-0.015,3.265 c-0.026,0.61-0.639,0.854-1.373,0.604c-1.947-0.666-3.752-1.621-5.311-2.963C0.956,26.96-1.214,20.83,0.657,13.655 C2.522,6.503,7.383,2.116,14.651,0.739C24.708-1.163,34.235,6.161,35.233,16.37C36.021,24.418,31.284,31.949,23.71,34.689z M14.229,25.85c-0.006,0.014-0.01,0.024-0.016,0.038c0.018,0.003,0.036,0.006,0.055,0.009 C14.282,25.898,14.294,25.923,14.229,25.85z M9.679,29.031c0.157,0.097,0.307,0.22,0.477,0.273c0.062,0.02,0.177-0.121,0.38-0.271 c-0.282-0.107-0.448-0.201-0.623-0.225C9.845,28.8,9.757,28.953,9.679,29.031z M11.112,29.277c0.023,0.105,0.232,0.236,0.355,0.234 c0.119-0.002,0.235-0.16,0.354-0.25c-0.108-0.099-0.216-0.195-0.548-0.494C11.201,28.975,11.082,29.143,11.112,29.277z M12.87,28.854c-0.148,0.035-0.273,0.172-0.408,0.266c0.079,0.1,0.158,0.193,0.285,0.35c0.175-0.16,0.294-0.271,0.414-0.379 C13.061,29.004,12.944,28.836,12.87,28.854z M8.512,28.261c0.082,0.155,0.209,0.289,0.381,0.508 c0.115-0.188,0.24-0.332,0.218-0.361c-0.109-0.143-0.257-0.26-0.403-0.367C8.698,28.033,8.495,28.227,8.512,28.261z" fill="#EEEEEE"/></symbol><symbol id="site-twitter" viewBox="0 0 512 512"><title>site-twitter</title><path style="fill:#03A9F4;" d="M512,97.248c-19.04,8.352-39.328,13.888-60.48,16.576c21.76-12.992,38.368-33.408,46.176-58.016 c-20.288,12.096-42.688,20.64-66.56,25.408C411.872,60.704,384.416,48,354.464,48c-58.112,0-104.896,47.168-104.896,104.992 c0,8.32,0.704,16.32,2.432,23.936c-87.264-4.256-164.48-46.08-216.352-109.792c-9.056,15.712-14.368,33.696-14.368,53.056 c0,36.352,18.72,68.576,46.624,87.232c-16.864-0.32-33.408-5.216-47.424-12.928c0,0.32,0,0.736,0,1.152 c0,51.008,36.384,93.376,84.096,103.136c-8.544,2.336-17.856,3.456-27.52,3.456c-6.72,0-13.504-0.384-19.872-1.792 c13.6,41.568,52.192,72.128,98.08,73.12c-35.712,27.936-81.056,44.768-130.144,44.768c-8.608,0-16.864-0.384-25.12-1.44 C46.496,446.88,101.6,464,161.024,464c193.152,0,298.752-160,298.752-298.688c0-4.64-0.16-9.12-0.384-13.568 C480.224,136.96,497.728,118.496,512,97.248z"/></symbol><symbol id="site-trello" viewBox="0 0 200 200"><title>site-trello</title><title>trello-mark-blue-flat</title><desc>Created with Sketch.</desc><defs/><g id="Page-1" stroke="none" stroke-width="1" fill="none" fill-rule="evenodd"><g id="Logos" transform="translate(-1579.000000, -521.000000)"><g id="Group" transform="translate(-9.000000, 1.000000)"><g id="Trello-Logo" transform="translate(468.000000, 0.000000)"><g id="Trello-Mark---Blue---Flat" transform="translate(1020.000000, 420.000000)"><g id="Mark" transform="translate(100.000000, 100.000000)"><rect id="Board" fill="#0079BF" x="0" y="0" width="200" height="200" rx="25"/><rect id="Right-List" fill="#FFFFFF" x="113" y="26" width="61" height="87.5" rx="12"/><rect id="Left-List" fill="#FFFFFF" x="26" y="26" width="61" height="137.5" rx="12"/></g></g></g></g></g></g></symbol><symbol id="site-dropbox-1" viewBox="0 0 235.45 200"><title>site-dropbox-1</title><defs><style>.cls-1{fill:#0061ff;}</style></defs><title>DropboxGlyph</title><polygon class="cls-1" points="58.86 0 0 37.5 58.86 75 117.73 37.5 58.86 0"/><polygon class="cls-1" points="176.59 0 117.73 37.5 176.59 75 235.45 37.5 176.59 0"/><polygon class="cls-1" points="0 112.5 58.86 150 117.73 112.5 58.86 75 0 112.5"/><polygon class="cls-1" points="176.59 75 117.73 112.5 176.59 150 235.45 112.5 176.59 75"/><polygon class="cls-1" points="58.86 162.5 117.73 200 176.59 162.5 117.73 125 58.86 162.5"/></symbol><symbol id="site-googlekeep" viewBox="0 0 442 442"><title>site-googlekeep</title><title>google-keep</title><desc>Created with Sketch.</desc><defs/><g id="Page-1" stroke="none" stroke-width="1" fill="none" fill-rule="evenodd"><g id="google-keep" fill-rule="nonzero"><path d="M441.954,30.463 L441.954,322.125 L322.125,441.965 L91.663,441.965 C53.838,419.782 22.219,388.163 0.036,350.348 L0.036,30.463 C0.036,13.661 13.651,0.036 30.453,0.036 L411.538,0.036 C428.339,0.035 441.954,13.661 441.954,30.463 Z" id="Shape" fill="#F7B900"/><path d="M0.0693595198,441.99836 L0.0693595198,307.484083 C0.0693595198,290.682083 13.6843595,277.057083 30.4863595,277.057083 L163.28936,277.057083 C180.09036,277.056083 64.0288595,390.65586 0.0693595198,441.99836 Z" id="Shape-Copy" fill="#F7B900" transform="translate(82.501138, 359.527721) rotate(-90.000000) translate(-82.501138, -359.527721) "/><polygon id="Shape" fill="#EDA92B" points="441.952 245.439 441.952 322.128 322.129 441.962 234.871 441.962 180.106 387.197 184.749 382.735 162.645 360.618 176.261 258.813 119.427 186.259 154.968 97.511 245.186 77.428 286.3 100.404 322.758 126.246"/><path d="M221.004,60.229 C159.557,60.229 109.565,110.215 109.565,171.656 C109.565,210.75 129.694,246.39 162.645,266.616 L162.645,360.618 L180.108,360.618 L180.108,387.201 L261.889,387.201 L261.889,360.618 L279.365,360.618 L279.365,266.614 C312.308,246.385 332.432,210.745 332.432,171.655 C332.431,110.215 282.445,60.229 221.004,60.229 Z M190.457,332.806 L190.457,317.491 L251.552,317.491 L251.552,332.806 L190.457,332.806 Z M259.106,246.124 L251.551,250.003 L251.551,289.68 L190.456,289.68 L190.456,250 L182.899,246.122 C154.819,231.71 137.376,203.176 137.376,171.655 C137.376,125.55 174.891,88.04 221.003,88.04 C267.108,88.04 304.618,125.549 304.618,171.655 C304.619,203.174 287.18,231.708 259.106,246.124 Z" id="Shape" fill="#FFFFFF"/><path d="M322.132,441.965 L322.132,352.554 C322.132,335.758 335.748,322.13 352.544,322.13 L441.955,322.13" id="Shape" fill="#FBDC7D"/></g></g></symbol><symbol id="site-messenger" viewBox="0 0 512 512"><title>site-messenger</title><path style="fill:#00A8FF" d="M256,0C114.624,0,0,106.112,0,237.024c0,74.592,37.216,141.12,95.392,184.576V512l87.168-47.84 c23.264,6.432,47.904,9.92,73.44,9.92c141.376,0,256-106.112,256-237.024C512,106.112,397.376,0,256,0z" data-original="#1E88E5" class="active-path" data-old_color="#00A0FF"/><polygon style="fill:#FAFAFA;" points="281.44,319.2 216.256,249.664 89.056,319.2 228.96,170.656 295.744,240.192 421.376,170.656 " data-original="#FAFAFA" class=""/></symbol><symbol id="site-instagram" viewBox="0 0 512 512"><title>site-instagram</title><path style="fill:#FDE494;" d="M114.759,512h61.103l-96.414-61.793L0.198,403.898C3.659,464.09,53.716,512,114.759,512z"/><path style="fill:#FEA150;" d="M335.448,476.69l-69.006-17.655H114.759c-34.072,0-61.793-27.721-61.793-61.793v-33.876 l-26.483-28.42L0,339.628v57.613c0,2.236,0.072,4.454,0.198,6.657L175.862,512h208.767L335.448,476.69z"/><path style="fill:#FF5D4A;" d="M441.655,440.14c-11.244,11.637-26.993,18.894-44.414,18.894H266.442L384.629,512h12.612 c41.202,0,77.396-21.829,97.64-54.527l-27.022-16.094L441.655,440.14z"/><path style="fill:#E45261;" d="M459.034,326.014v71.228c0,16.652-6.633,31.775-17.379,42.899l53.227,17.333 C505.728,439.954,512,419.318,512,397.241v-62.805l-27.396-15.391L459.034,326.014z"/><polygon style="fill:#FF4D95;" points="512,149.19 483.797,142.474 459.034,157.3 459.034,326.014 512,334.436 "/><path style="fill:#CB319C;" d="M512,114.759c0-57.633-42.708-105.473-98.136-113.55L344.43,30.101l-35.183,22.865h87.994 c34.072,0,61.793,27.721,61.793,61.793V157.3L512,149.19V114.759z"/><path style="fill:#8A3293;" d="M317.732,0l-65.682,24.636l-51.805,28.33h109.002L413.864,1.208C408.435,0.417,402.887,0,397.241,0 H317.732z"/><path style="fill:#FF5D4A;" d="M256,406.069c18.358,0,35.954-3.32,52.226-9.38l-86.02-39.047l-91.178-18.657 C157.946,379.39,203.913,406.069,256,406.069z"/><path style="fill:#E45261;" d="M329.153,305.358c-15.883,23.465-42.748,38.918-73.153,38.918c-40.273,0-74.308-27.118-84.867-64.046 l-23.682-14.801l-40.847,4.538c2.353,25.345,11.014,48.887,24.425,69.017l177.198,57.705c38.303-14.264,69.237-43.757,85.458-81.068 l-31.753-16.085L329.153,305.358z"/><g> <path style="fill:#FF4D95;" d="M167.724,256c0-21.878,8.018-41.907,21.247-57.346l-37.658-5.268l-38.25,16.892 c-4.625,14.422-7.132,29.784-7.132,45.722c0,4.712,0.244,9.365,0.671,13.966l64.53,10.262 C168.929,272.524,167.724,264.403,167.724,256z"/> <path style="fill:#FF4D95;" d="M406.069,256c0-32.138-10.159-61.946-27.428-86.39l-37.397-5.308l-38.418,16.917 c24.873,15.631,41.45,43.298,41.45,74.781c0,18.27-5.58,35.261-15.123,49.358l64.531,10.262 C401.634,297.334,406.069,277.18,406.069,256z"/> </g><g> <path style="fill:#CB319C;" d="M256,167.724c17.194,0,33.242,4.959,46.826,13.495l75.815-11.609 c-27.196-38.493-72.03-63.679-122.641-63.679c-66.81,0-123.554,43.889-142.937,104.345l75.908-11.624 C205.173,179.742,229.203,167.724,256,167.724z"/> <path style="fill:#CB319C;" d="M397.241,150.069c19.47,0,35.31-15.84,35.31-35.31s-15.84-35.31-35.31-35.31 c-19.47,0-35.31,15.84-35.31,35.31S377.771,150.069,397.241,150.069z"/> </g><polygon style="fill:#FF5D4A;" points="52.966,313.564 27.47,300.847 0,296.316 0,339.629 52.966,363.366 "/><polygon style="fill:#E45261;" points="0,253.014 0,296.316 52.966,313.564 52.966,261.437 25.446,251.543 "/><polygon style="fill:#FF4D95;" points="52.966,219.479 25.749,219.233 0,227.59 0,253.014 52.966,261.437 "/><polygon style="fill:#CB319C;" points="52.966,179.757 24.911,182.603 0,205.962 0,227.59 52.966,219.479 "/><polygon style="fill:#8A3293;" points="0,205.962 52.966,179.757 52.966,119.362 21.9,122.333 0,143.241 "/><path style="fill:#523494;" d="M205.059,0L84.206,46.481L1.387,96.928C0.477,102.741,0,108.695,0,114.759v28.482l52.966-23.878 v-4.605c0-34.072,27.721-61.793,61.793-61.793h85.487L317.732,0H205.059z"/><path style="fill:#2D2D87;" d="M114.759,0C57.545,0,9.978,42.088,1.387,96.928L205.059,0H114.759z"/></symbol><symbol id="site-facebook" viewBox="0 0 100 100"><title>site-facebook</title><defs><style>.cls-1{fill:#4267b2;}.cls-2{fill:#fff;}</style></defs><title>f-ogo_RGB_HEX-100</title><path class="cls-1" d="M94.48,0h-89A5.52,5.52,0,0,0,0,5.52v89A5.52,5.52,0,0,0,5.52,100h47.9V61.33h-13V46.19h13V35.05c0-12.91,7.89-19.95,19.41-19.95a104.57,104.57,0,0,1,11.64.6V29.2H76.53c-6.27,0-7.49,3-7.49,7.35v9.64H84l-2,15.14H69V100H94.48A5.52,5.52,0,0,0,100,94.48v-89A5.52,5.52,0,0,0,94.48,0Z"/><path id="f" class="cls-2" d="M69,100V61.33h13l2-15.14H69V36.55c0-4.37,1.22-7.35,7.49-7.35h7.94V15.7a104.57,104.57,0,0,0-11.64-.6c-11.52,0-19.41,7-19.41,19.95V46.19h-13V61.33h13V100Z"/></symbol><symbol id="site-more" viewBox="0 0 330 330"><title>site-more</title><path id="XMLID_27_" d="M85,140c-13.785,0-25,11.215-25,25s11.215,25,25,25s25-11.215,25-25S98.785,140,85,140z" fill="#999999"/><path id="XMLID_29_" d="M165,140c-13.785,0-25,11.215-25,25s11.215,25,25,25s25-11.215,25-25S178.785,140,165,140z" fill="#999999"/><path id="XMLID_31_" d="M245,140c-13.785,0-25,11.215-25,25s11.215,25,25,25s25-11.215,25-25S258.785,140,245,140z" fill="#999999"/><path id="XMLID_85_" d="M165,0C74.019,0,0,74.019,0,165s74.019,165,165,165s165-74.019,165-165S255.981,0,165,0z M165,300 c-74.439,0-135-60.561-135-135S90.561,30,165,30s135,60.561,135,135S239.439,300,165,300z" fill="#999999"/></symbol><symbol id="site-reddit" viewBox="0 0 172 172"><title>site-reddit</title><title>Artwork</title><desc>Created with Sketch.</desc><defs/><g id="Page-1" stroke="none" stroke-width="1" fill="none" fill-rule="evenodd"><g id="Reddit_Mark_OnDark" transform="translate(-85.000000, -85.000000)" fill-rule="nonzero"><g id="Artwork" transform="translate(85.000000, 85.000000)"><g id="Group"><circle id="Oval" fill="#FF4500" cx="85.9" cy="85.9" r="85.5"/><path d="M142.9,85.9 C142.9,79 137.3,73.4 130.4,73.4 C127,73.4 124,74.7 121.8,76.9 C113.3,70.8 101.5,66.8 88.5,66.3 L94.2,39.6 L112.7,43.5 C112.9,48.2 116.8,52 121.6,52 C126.5,52 130.5,48 130.5,43.1 C130.5,38.2 126.5,34.2 121.6,34.2 C118.1,34.2 115.1,36.2 113.7,39.2 L93,34.8 C92.4,34.7 91.8,34.8 91.3,35.1 C90.8,35.4 90.5,35.9 90.3,36.5 L84,66.3 C70.7,66.7 58.8,70.6 50.2,76.9 C48,74.8 44.9,73.4 41.6,73.4 C34.7,73.4 29.1,79 29.1,85.9 C29.1,91 32.1,95.3 36.5,97.3 C36.3,98.5 36.2,99.8 36.2,101.1 C36.2,120.3 58.5,135.8 86.1,135.8 C113.7,135.8 136,120.3 136,101.1 C136,99.8 135.9,98.6 135.7,97.4 C139.8,95.4 142.9,91 142.9,85.9 Z M57.4,94.8 C57.4,89.9 61.4,85.9 66.3,85.9 C71.2,85.9 75.2,89.9 75.2,94.8 C75.2,99.7 71.2,103.7 66.3,103.7 C61.4,103.7 57.4,99.7 57.4,94.8 Z M107.1,118.3 C101,124.4 89.4,124.8 86,124.8 C82.6,124.8 70.9,124.3 64.9,118.3 C64,117.4 64,115.9 64.9,115 C65.8,114.1 67.3,114.1 68.2,115 C72,118.8 80.2,120.2 86.1,120.2 C92,120.2 100.1,118.8 104,115 C104.9,114.1 106.4,114.1 107.3,115 C108,116 108,117.4 107.1,118.3 Z M105.5,103.7 C100.6,103.7 96.6,99.7 96.6,94.8 C96.6,89.9 100.6,85.9 105.5,85.9 C110.4,85.9 114.4,89.9 114.4,94.8 C114.4,99.7 110.4,103.7 105.5,103.7 Z" id="Shape" fill="#FFFFFF"/></g></g></g></g></symbol><symbol id="site-youtube" viewBox="0 0 512 512"><title>site-youtube</title><path style="fill:#FD0E1C" d="M506.703,145.655c0,0-5.297-37.959-20.303-54.731c-19.421-22.069-41.49-22.069-51.2-22.952 C363.697,62.676,256,61.793,256,61.793l0,0c0,0-107.697,0.883-179.2,6.179c-9.71,0.883-31.779,1.766-51.2,22.952 C9.71,107.697,5.297,145.655,5.297,145.655S0,190.676,0,235.697v41.49c0,45.021,5.297,89.159,5.297,89.159 s5.297,37.959,20.303,54.731c19.421,22.069,45.021,21.186,56.497,23.835C122.703,449.324,256,450.207,256,450.207 s107.697,0,179.2-6.179c9.71-0.883,31.779-1.766,51.2-22.952c15.007-16.772,20.303-54.731,20.303-54.731S512,321.324,512,277.186 v-41.49C512,190.676,506.703,145.655,506.703,145.655" data-original="#D8362A" class="active-path" data-old_color="##FD0E1"/><polygon style="fill:#FFFFFF" points="194.207,166.841 194.207,358.4 361.931,264.828 " data-original="#FFFFFF" class=""/></symbol><symbol id="site-quora" viewBox="0 0 427.671 427.671"><title>site-quora</title><g transform="matrix(0.834514 0 0 0.834514 35.3868 35.3868)"><path style="fill:#CF2217" d="M386.516,335.593c0,0-2.093,30.699-30.001,30.699c-21.553,0-36.272-16.439-50.055-37.786 c39.148-34.171,64.008-85.199,64.008-142.221C370.469,83.403,289.565,0,189.765,0S9.061,83.403,9.061,186.286 s80.904,186.286,180.704,186.286c18.112,0,35.595-2.759,52.092-7.871c20.871,33.157,47.366,62.97,88.843,62.97 c84.421,0,87.91-92.077,87.91-92.077h-32.094L386.516,335.593L386.516,335.593z M189.765,341.873 c-58.185,0-105.353-69.659-105.353-155.587S131.58,30.699,189.765,30.699s105.352,69.659,105.352,155.587 c0,34.169-7.464,65.759-20.108,91.426c-14.283-20.392-31.428-37.757-55.941-43.285c-43.485-9.805-80.933,9.768-92.794,19.536 l11.163,23.024c0,0,11.285-6.488,39.267-0.008c17.631,4.083,31.332,28.551,47.034,56.623 C213.08,338.962,201.653,341.873,189.765,341.873z" data-original="#CF2217" class="active-path"/></g></symbol><symbol id="drk-checkbox" viewBox="0 0 97.619 97.618"><title>drk-checkbox</title><path d="M96.939,17.358L83.968,5.959c-0.398-0.352-0.927-0.531-1.449-0.494C81.99,5.5,81.496,5.743,81.146,6.142L34.1,59.688 L17.372,37.547c-0.319-0.422-0.794-0.701-1.319-0.773c-0.524-0.078-1.059,0.064-1.481,0.385L0.794,47.567 c-0.881,0.666-1.056,1.92-0.39,2.801l30.974,40.996c0.362,0.479,0.922,0.771,1.522,0.793c0.024,0,0.049,0,0.073,0 c0.574,0,1.122-0.246,1.503-0.68l62.644-71.297C97.85,19.351,97.769,18.086,96.939,17.358z"/></symbol></svg>